<?xml version="1.0" encoding="UTF-8" standalone="no"?>
<!-- Created with Inkscape (http://www.inkscape.org/) -->

<svg
   xmlns:dc="http://purl.org/dc/elements/1.1/"
   xmlns:cc="http://creativecommons.org/ns#"
   xmlns:rdf="http://www.w3.org/1999/02/22-rdf-syntax-ns#"
   xmlns:svg="http://www.w3.org/2000/svg"
   xmlns="http://www.w3.org/2000/svg"
   xmlns:sodipodi="http://sodipodi.sourceforge.net/DTD/sodipodi-0.dtd"
   xmlns:inkscape="http://www.inkscape.org/namespaces/inkscape"
   width="128"
   height="128"
   id="svg3867"
   version="1.1"
   inkscape:version="0.48.3.1 r9886"
   sodipodi:docname="barrel_red.svg">
  <defs
     id="defs3869" />
  <sodipodi:namedview
     id="base"
     pagecolor="#ffffff"
     bordercolor="#666666"
     borderopacity="1.0"
     inkscape:pageopacity="0.0"
     inkscape:pageshadow="2"
     inkscape:zoom="1.4"
     inkscape:cx="-80.997862"
     inkscape:cy="16.656588"
     inkscape:document-units="px"
     inkscape:current-layer="layer1"
     showgrid="false"
     inkscape:window-width="1600"
     inkscape:window-height="850"
     inkscape:window-x="0"
     inkscape:window-y="124"
     inkscape:window-maximized="1" />
  <metadata
     id="metadata3872">
    <rdf:RDF>
      <cc:Work
         rdf:about="">
        <dc:format>image/svg+xml</dc:format>
        <dc:type
           rdf:resource="http://purl.org/dc/dcmitype/StillImage" />
        <dc:title></dc:title>
      </cc:Work>
    </rdf:RDF>
  </metadata>
  <g
     inkscape:label="Layer 1"
     inkscape:groupmode="layer"
     id="layer1"
     transform="translate(0,-924.36218)">
    <path
       inkscape:connector-curvature="0"
       id="path66"
       style="fill:#fff798;fill-opacity:1;fill-rule:evenodd;stroke:none"
       d="m 89.447994,946.40889 c -6.3925,-1.2275 -15.298747,-1.985 -25.202497,-1.985 -9.9025,0 -18.80875,0.7575 -25.2025,1.985 -4.72625,0.90625 -7.64875,1.10375 -7.64875,1.24875 0,0.145 2.9225,0.3425 7.64875,1.24875 6.39375,1.225 15.3,1.985 25.2025,1.985 9.90375,0 18.809997,-0.76 25.202497,-1.985 4.7275,-0.90625 7.65125,-1.10375 7.65125,-1.24875 0,-0.145 -2.92375,-0.3425 -7.65125,-1.24875 z m 19.783746,61.42371 c 1.535,-12.96617 1.29625,-25.93247 -0.37875,-38.89747 -2.67875,1.0088 -5.5075,1.9138 -8.4525,2.715 0.8725,7.41 1.25375,14.84 1.19125,22.2825 -0.0488,5.7188 -0.35875,11.44247 -0.90625,17.16627 3.05,-0.9563 5.91625,-2.0463 8.54625,-3.2663 l 0,0 z m -12.461246,4.3938 c 0.63375,-6.1175 0.99125,-12.22747 1.04125,-18.32377 0.06,-7.1137 -0.29625,-14.22 -1.1125,-21.315 -5.06875,1.1925 -10.425,2.0925 -15.9225,2.6938 0.5975,7.3187 0.88875,14.625 0.87875,21.9237 -0.008,5.99627 -0.2175,11.98247 -0.62625,17.96247 5.51125,-0.6587 10.82,-1.6412 15.74125,-2.9412 l 0,0 z m -19.55875,3.3425 c 0.43375,-6.1175 0.6575,-12.2375 0.665,-18.36377 0.009,-7.1712 -0.2775,-14.3575 -0.865,-21.56 -4.288747,0.3613 -8.642497,0.5425 -12.989997,0.5425 -4.3125,0 -8.63,-0.1787 -12.89125,-0.5375 -0.5875,7.2 -0.87375,14.3838 -0.86375,21.555 0.0075,6.12747 0.23,12.24997 0.66375,18.36747 4.30125,0.3938 8.69375,0.5888 13.09125,0.5888 4.435,0 8.85875,-0.1988 13.189997,-0.5925 l 0,0 z m -30.098747,-0.4 c -0.40875,-5.9813 -0.61875,-11.9675 -0.62625,-17.96377 -0.01,-7.2975 0.28125,-14.605 0.87875,-21.9212 -4.8225,-0.5338 -9.545,-1.3025 -14.06875,-2.3125 -0.785,6.9662 -1.1275,13.9462 -1.06875,20.9312 0.0525,6.24377 0.42625,12.50127 1.0875,18.76747 4.37125,1.09 9.01125,1.9213 13.7975,2.4988 l 0,0 z m -25.125001,5.9662 c 0.735,3.9363 1.12,10.9113 4.73125,13.5063 2.385001,1.7125 6.135001,3.06 10.901251,3.9737 6.87125,1.3175 16.28875,2.1325 26.625,2.1325 10.337497,0 19.756247,-0.815 26.626247,-2.1325 3.79375,-0.7275 7.01875,-1.805 9.431246,-3.13 5.28125,-2.9 5.555,-8.925 6.755,-14.5387 -2.52125,0.885 -5.16625,1.6837 -7.903746,2.3937 -0.33125,2.1575 -0.695,4.3163 -1.0875,6.475 l -0.9675,0.1088 c 0,0.089 -1.0825,0.1975 -2.9925,0.4712 0.38375,-2.035 0.7375,-4.0675 1.065,-6.1 -4.85625,1.0738 -9.9575,1.885 -15.17875,2.4288 -0.215,1.9362 -0.45125,3.8725 -0.7075,5.8062 -1.24625,0.1113 -2.5325,0.2075 -3.85375,0.29 0.25875,-1.915 0.4975,-3.83 0.71625,-5.745 -4.008747,0.3125 -8.069997,0.4713 -12.126247,0.4713 -4.01875,0 -8.04625,-0.1563 -12.02625,-0.4675 0.2175,1.9062 0.45625,3.8125 0.71375,5.7187 -1.32375,-0.086 -2.61125,-0.185 -3.85625,-0.2987 -0.25375,-1.9238 -0.49,-3.8475 -0.70375,-5.7725 -4.51625,-0.4738 -8.94875,-1.1538 -13.2175,-2.0438 0.3225,1.9838 0.67125,3.9675 1.0475,5.9538 -1.86,-0.2963 -3.2225,-0.46 -3.96,-0.5688 -0.38375,-2.0962 -0.74,-4.1912 -1.06625,-6.2875 -3.105001,-0.7637 -6.103751,-1.645 -8.965001,-2.645 l 0,0 z m -2.67375,-52.34247 c -1.6425,13.3525 -1.1275,26.3988 0.57,39.27497 2.93125,1.35 6.12625,2.5288 9.520001,3.5363 -0.58,-5.8925 -0.905,-11.78377 -0.955,-17.67127 -0.06125,-7.3 0.30375,-14.5862 1.14125,-21.8562 -3.593751,-0.9338 -7.038751,-2.0263 -10.276251,-3.2838 l 0,0 z m 44.931251,-31.95874 c 10.337497,0 19.756247,0.815 26.626247,2.1325 5.4425,1.0975 9.556246,2.75625 11.826246,4.82125 2.4075,2.1925 3.81375,11.09 4.30625,13.665 -2.5925,1.08 -5.38125,2.04375 -8.326246,2.89 -0.3625,-1.92875 -0.75875,-3.85625 -1.19125,-5.7825 -1.1025,0.4125 -2.315,0.78875 -3.63125,1.125 0.4175,1.87625 0.8,3.75375 1.15125,5.63125 -4.8475,1.185 -10.03625,2.0725 -15.4,2.65504 -0.25125,-2.01754 -0.5275,-4.03754 -0.82625,-6.05629 -1.23125,0.1 -2.495,0.1875 -3.78625,0.26125 0.30625,2.0525 0.58875,4.1025 0.84625,6.15254 -3.892497,0.315 -7.852497,0.4737 -11.818747,0.4737 -3.9325,0 -7.8575,-0.1562 -11.71875,-0.47 0.25875,-2.05749 0.54125,-4.11624 0.84875,-6.17624 -1.29125,-0.0775 -2.55625,-0.1675 -3.78625,-0.27 -0.3,2.03 -0.5775,4.05875 -0.83125,6.08754 -4.68875,-0.51379 -9.25,-1.26879 -13.5725,-2.26754 0.3475,-1.89125 0.73,-3.78125 1.14625,-5.67125 -1.3125,-0.29125 -2.5375,-0.6175 -3.665,-0.97875 -0.4225,1.9075 -0.81,3.81375 -1.16375,5.72375 -3.560001,-0.9725 -6.923751,-2.125 -10.018751,-3.4575 0.2875,-1.3225 2.50125,-11.4475 3.9825,-13.085 2.11625,-2.3375 6.466251,-4.1375 12.377501,-5.27125 6.87125,-1.3175 16.28875,-2.1325 26.625,-2.1325 l 0,0" />
  </g>
</svg>
