<?xml version="1.0" encoding="UTF-8" standalone="no"?>
<!-- Created with Inkscape (http://www.inkscape.org/) -->

<svg
   xmlns:dc="http://purl.org/dc/elements/1.1/"
   xmlns:cc="http://creativecommons.org/ns#"
   xmlns:rdf="http://www.w3.org/1999/02/22-rdf-syntax-ns#"
   xmlns:svg="http://www.w3.org/2000/svg"
   xmlns="http://www.w3.org/2000/svg"
   xmlns:sodipodi="http://sodipodi.sourceforge.net/DTD/sodipodi-0.dtd"
   xmlns:inkscape="http://www.inkscape.org/namespaces/inkscape"
   width="128"
   height="128"
   id="svg3867"
   version="1.1"
   inkscape:version="0.48.3.1 r9886"
   sodipodi:docname="glass_dry_white.svg">
  <defs
     id="defs3869" />
  <sodipodi:namedview
     id="base"
     pagecolor="#ffffff"
     bordercolor="#666666"
     borderopacity="1.0"
     inkscape:pageopacity="0.0"
     inkscape:pageshadow="2"
     inkscape:zoom="1.979899"
     inkscape:cx="46.855553"
     inkscape:cy="37.491706"
     inkscape:document-units="px"
     inkscape:current-layer="layer1"
     showgrid="false"
     inkscape:window-width="1063"
     inkscape:window-height="713"
     inkscape:window-x="90"
     inkscape:window-y="154"
     inkscape:window-maximized="0" />
  <metadata
     id="metadata3872">
    <rdf:RDF>
      <cc:Work
         rdf:about="">
        <dc:format>image/svg+xml</dc:format>
        <dc:type
           rdf:resource="http://purl.org/dc/dcmitype/StillImage" />
        <dc:title />
      </cc:Work>
    </rdf:RDF>
  </metadata>
  <g
     inkscape:label="Layer 1"
     inkscape:groupmode="layer"
     id="layer1"
     transform="translate(0,-924.36218)">
    <path
       inkscape:connector-curvature="0"
       id="path76"
       style="fill:#fff798;fill-opacity:1;fill-rule:nonzero;stroke:none"
       d="m 42.804977,986.99148 c -5.69,-6.77738 -9.21,-16.2075 -9.21,-26.68613 0,-3.0375 0.2925,-5.97262 0.84375,-8.76637 0.295,-1.4975 0.66625,-2.96125 1.10375,-4.38125 l 56.51625,0 c 0.43875,1.42 0.8075,2.88375 1.10375,4.38125 0.5525,2.79375 0.84375,5.72887 0.84375,8.76637 0,2.72863 -0.24625,5.38625 -0.7,7.94875 l -50.6325,0 c 0.71,7.86863 3.6575,14.88963 8.05875,20.13388 3.97,4.727 9.133747,7.976 14.859997,9.00488 -0.59375,0.041 -1.19,0.07 -1.79125,0.07 -8.137497,0 -15.563747,-4.00101 -20.996247,-10.47113 z m 28.022497,22.18992 c 20.186253,-3.8989 35.581256,-24.29105 35.581256,-48.87605 0,-3.81387 -0.37625,-7.54387 -1.08625,-11.14012 -0.73,-3.69875 -1.81875,-7.24625 -3.2175,-10.5825 l -1.605,-3.8275 -73.397503,0 -1.60375,3.8275 c -1.4,3.33625 -2.48875,6.88375 -3.21875,10.5825 -0.71,3.59625 -1.08625,7.32625 -1.08625,11.14012 0,13.46588 4.63,25.71488 12.1175,34.63088 5.91875,7.04887 13.6125,12.03377 22.25375,13.99517 l 0,20.1552 -23.28875,0 0,13.2159 62.65625,0 0,-13.2159 -24.105003,0 0,-19.9052" />
  </g>
</svg>
