<?xml version="1.0" encoding="UTF-8" standalone="no"?>
<!-- Created with Inkscape (http://www.inkscape.org/) -->

<svg
   xmlns:dc="http://purl.org/dc/elements/1.1/"
   xmlns:cc="http://creativecommons.org/ns#"
   xmlns:rdf="http://www.w3.org/1999/02/22-rdf-syntax-ns#"
   xmlns:svg="http://www.w3.org/2000/svg"
   xmlns="http://www.w3.org/2000/svg"
   xmlns:sodipodi="http://sodipodi.sourceforge.net/DTD/sodipodi-0.dtd"
   xmlns:inkscape="http://www.inkscape.org/namespaces/inkscape"
   width="128"
   height="128"
   id="svg3867"
   version="1.1"
   inkscape:version="0.48.3.1 r9886"
   sodipodi:docname="grapes_dryWhite.svg">
  <defs
     id="defs3869" />
  <sodipodi:namedview
     id="base"
     pagecolor="#ffffff"
     bordercolor="#666666"
     borderopacity="1.0"
     inkscape:pageopacity="0.0"
     inkscape:pageshadow="2"
     inkscape:zoom="1.4"
     inkscape:cx="-80.997862"
     inkscape:cy="16.656588"
     inkscape:document-units="px"
     inkscape:current-layer="layer1"
     showgrid="false"
     inkscape:window-width="1600"
     inkscape:window-height="850"
     inkscape:window-x="0"
     inkscape:window-y="124"
     inkscape:window-maximized="1" />
  <metadata
     id="metadata3872">
    <rdf:RDF>
      <cc:Work
         rdf:about="">
        <dc:format>image/svg+xml</dc:format>
        <dc:type
           rdf:resource="http://purl.org/dc/dcmitype/StillImage" />
        <dc:title></dc:title>
      </cc:Work>
    </rdf:RDF>
  </metadata>
  <g
     inkscape:label="Layer 1"
     inkscape:groupmode="layer"
     id="layer1"
     transform="translate(0,-924.36218)">
    <path
       inkscape:connector-curvature="0"
       id="path52"
       style="fill:#fdb928;fill-opacity:1;fill-rule:evenodd;stroke:none"
       d="m 114.9075,928.92442 -13.135,2.5 c 6.1975,13 4.87625,22.4725 -0.5875,35.05253 l 2.02,0.98 c 8.72875,-9.2988 19.9825,-20.95378 11.7025,-38.53253 z m -101.354998,87.48498 6.77,0.2075 c -0.0775,-2.23 -0.24,-5.3575 0.275,-8.1388 l -3.94875,-1.455 c -1.9375,2.52 -2.9675,6.1225 -3.09625,9.3863 l 0,0 z m 57.08,-43.12875 6.77125,0.2075 c -0.0775,-2.23 -0.24125,-5.3562 0.2725,-8.1387 l -3.9475,-1.4538 c -1.93875,2.52 -2.9675,6.1213 -3.09625,9.385 l 0,0 z m 7.4725,-9.6487 c 0.375,-1.1538 0.9175,-2.1838 1.69625,-2.9838 -1.88,0.011 -3.47,0.7138 -4.77,1.85 l 3.07375,1.1338 0,0 z m -19.85125,31.26249 6.77125,0.2075 c -0.0775,-2.23 -0.24125,-5.3563 0.2725,-8.13879 l -3.9475,-1.4537 c -1.93875,2.51869 -2.9675,6.12119 -3.09625,9.38499 l 0,0 z m 7.47375,-9.64999 c 0.37375,-1.1525 0.9175,-2.1825 1.69625,-2.9825 -1.88,0.011 -3.47,0.7137 -4.77125,1.85 l 3.075,1.1325 0,0 z m -34.58875,8.47119 6.77125,0.2075 c -0.0775,-2.23 -0.24125,-5.3575 0.27375,-8.13869 l -3.94875,-1.455 c -1.9375,2.52 -2.9675,6.12249 -3.09625,9.38619 l 0,0 z m 7.4725,-9.64999 c 0.375,-1.1525 0.91875,-2.1837 1.6975,-2.9825 -1.88125,0.011 -3.47125,0.7125 -4.77125,1.85 l 3.07375,1.1325 0,0 z m -17.58625,22.69375 c 0.375,-1.1525 0.9175,-2.1838 1.6975,-2.9825 -1.88,0.011 -3.47,0.7137 -4.77125,1.85 l 3.07375,1.1325 0,0 z M 107.125,998.65564 c 8.46375,0.2488 15.24875,7.18746 15.24875,15.70996 0,8.6825 -7.0375,15.72 -15.72,15.72 -6.22125,0 -11.598748,-3.6162 -14.146248,-8.86 -2.5475,5.2438 -7.925,8.86 -14.14625,8.86 -5.385,0 -10.135,-2.7075 -12.96875,-6.835 -2.8325,4.1275 -7.58375,6.835 -12.9675,6.835 -6.56375,0 -12.1875,-4.0237 -14.54125,-9.7387 -2.3525,5.715 -7.97625,9.7387 -14.53875,9.7387 -8.68125,0 -15.7187492,-7.0375 -15.7187492,-15.72 0,-8.68 7.0374992,-15.71746 15.7187492,-15.71746 1.79875,0 3.52625,0.3025 5.13625,0.8588 -1.51125,-2.4138 -2.385,-5.2675 -2.385,-8.3263 0,-8.68119 7.0375,-15.71869 15.71875,-15.71869 5.26125,0 9.9175,2.5862 12.77125,6.555 2.42,-3.365 6.13625,-5.7363 10.41875,-6.3788 -0.5125,-1.5525 -0.79125,-3.2112 -0.79125,-4.935 0,-8.6812 7.0375,-15.71873 15.71875,-15.71873 8.68125,0 15.71875,7.03753 15.71875,15.71873 0,1.6888 -0.2675,3.315 -0.76,4.8388 7.929998,0.8012 14.121248,7.4975 14.121248,15.63869 0,2.7063 -0.68375,5.2513 -1.8875,7.475 l 0,0" />
  </g>
</svg>
